<?xml version="1.0" encoding="utf-8"?>
<!-- Svg Vector Icons : http://www.onlinewebfonts.com/icon -->
<!DOCTYPE svg PUBLIC "-//W3C//DTD SVG 1.1//EN" "http://www.w3.org/Graphics/SVG/1.1/DTD/svg11.dtd">
<svg version="1.1" xmlns="http://www.w3.org/2000/svg" xmlns:xlink="http://www.w3.org/1999/xlink" x="0px" y="0px" viewBox="0 0 1000 1000" enable-background="new 0 0 1000 1000" xml:space="preserve">
<metadata> Svg Vector Icons : http://www.onlinewebfonts.com/icon </metadata>
<g><path d="M964.2,463H687.9c-14,0-26.7,8.7-31.7,21.8c-8.9,23.6-27.4,58-60.3,58c-47.9,0-40.5-56.2-10.2-119.3c3.2-6.5,4.1-13.9,2.7-21.1c-5.6-28.4-31.5-92.8-152.1-56.6c-3,0.9-5.7,2.1-8.4,3.8c-25.2,16-156.6,107-84.8,231c1.4,2.6,3.3,4.9,5.3,7c8.9,8.9,36.1,32.2,78.4,34c1.7,0.1,3.5,0.1,5.2,0.1c31.9,0,49.8-14.4,59.2-26.8c14.9-19.4,45.1-17.2,56.5,4.5c0.3,0.5,0.5,1,0.8,1.6c16.9,33.9,100.1,7.3,119.7-34.4c5.5-11.9,17.5-19.3,30.5-19.3h70.2c19.8,0,35.4,17,33.7,36.8c-7.4,83.6-53,280.5-321.3,281.1c-0.8,0-1.6,0-2.5,0.1C456.4,867,99.6,888.7,99.1,495.8c0-0.5,0-1.1,0-1.6c-0.9-18.2-14.4-367,365.3-367c0,0,294.9,5.9,318.5,241.5c1.7,17.3,16.3,30.5,33.7,30.5h2.3c20.2,0,35.8-17.5,33.6-37.5c-10-88.8-66.6-304.4-381.3-304.4c0,0-461-20.8-461,437.7S455.5,943,480.2,943c23.9,0,377.2-4.9,396.7-367c0.9-17.9,15.8-31.9,33.8-31.9h52.7c0.4,0,0.8,0,1.2,0c3.3,0.1,25.5-0.4,25.5-38.5C990.1,464.7,977.1,463,964.2,463z M465.6,535.9c0,0-35.3,36.8-75.5,6.3c-5.8-4.4-10-10.5-12-17.6c-2.4-8.4-3.9-21.2,0.2-37.2c0.6-2.3,1.4-4.5,2.5-6.6c7.8-15.4,44.2-80.3,103.5-65.6c11.1,2.8,20.3,10.8,24,21.7C514.8,455.7,514.5,489.7,465.6,535.9z"/><path d="M499,271.7c9-0.4,127-3.8,144.1,107.2c2.6,16.4,16.8,28.3,33.3,28.3h7.4c22.7,0,39.1-22.1,32.2-43.8c-19.3-61.7-72.4-166.8-209-166.8C313.6,196.6,160,322.6,160,535c0,212.4,174.4,253.8,300.4,253.8c0,0,170.1,7.3,215.1-83c11.2-22.3-5.5-48.5-30.4-48.5h-10.7c-12.7,0-24.2,7.2-30.1,18.4c-9.7,18.5-42,44.4-147.1,44.4c0,0-220,10.3-220.9-186.8c0-0.6,0-1.2-0.1-1.9c-1-16.4-11.6-259.4,261.3-259.8C498.1,271.7,498.5,271.7,499,271.7z"/></g>
</svg>